<svg width="50" height="50" viewBox="0 0 50 50" fill="none" xmlns="http://www.w3.org/2000/svg">
<path d="M25 6.24984L26.0192 4.43286C25.3863 4.07772 24.6138 4.07772 23.9808 4.43286L25 6.24984ZM27.9117 7.88318L26.8925 9.70015C27.1963 9.87051 27.5377 9.96203 27.8858 9.96634L27.9117 7.88318ZM31.25 7.92453L33.0413 6.86059C32.6704 6.23649 32.0017 5.85034 31.2758 5.84134L31.25 7.92453ZM32.955 10.7949L31.1638 11.8588C31.3417 12.1582 31.5917 12.4082 31.891 12.5861L32.955 10.7949ZM35.8254 12.4998L37.9085 12.474C37.8996 11.7482 37.5133 11.0794 36.8892 10.7087L35.8254 12.4998ZM35.8667 15.8381L33.7835 15.8639C33.7877 16.2121 33.8794 16.5537 34.0496 16.8574L35.8667 15.8381ZM37.5 18.7498L39.3171 19.7691C39.6721 19.136 39.6721 18.3637 39.3171 17.7306L37.5 18.7498ZM35.8667 21.6615L34.0496 20.6423C33.8794 20.9461 33.7877 21.2875 33.7835 21.6357L35.8667 21.6615ZM35.8254 24.9998L36.8892 26.7911C37.5133 26.4203 37.8996 25.7515 37.9085 25.0257L35.8254 24.9998ZM32.955 26.7048L31.891 24.9136C31.5917 25.0915 31.3417 25.3415 31.1638 25.6409L32.955 26.7048ZM31.25 29.5753L31.2758 31.6584C32.0017 31.6494 32.6704 31.2632 33.0413 30.639L31.25 29.5753ZM27.9117 29.6165L27.8858 27.5334C27.5377 27.5375 27.1963 27.6292 26.8925 27.7994L27.9117 29.6165ZM25 31.2498L23.9808 33.0669C24.6138 33.4219 25.3863 33.4219 26.0192 33.0669L25 31.2498ZM22.0883 29.6165L23.1075 27.7994C22.8038 27.6292 22.4623 27.5375 22.1142 27.5334L22.0883 29.6165ZM18.75 29.5753L16.9588 30.639C17.3295 31.2632 17.9984 31.6494 18.7242 31.6584L18.75 29.5753ZM17.045 26.7048L18.8362 25.6409C18.6584 25.3415 18.4084 25.0915 18.109 24.9136L17.045 26.7048ZM14.1747 24.9998L12.0915 25.0257C12.1005 25.7515 12.4866 26.4203 13.1108 26.7911L14.1747 24.9998ZM14.1333 21.6615L16.2165 21.6357C16.2122 21.2875 16.1207 20.9461 15.9503 20.6423L14.1333 21.6615ZM12.5 18.7498L10.683 17.7306C10.3279 18.3637 10.3279 19.136 10.683 19.7691L12.5 18.7498ZM14.1333 15.8381L15.9503 16.8574C16.1207 16.5537 16.2122 16.2121 16.2165 15.8639L14.1333 15.8381ZM14.1747 12.4998L13.1108 10.7087C12.4866 11.0794 12.1005 11.7482 12.0915 12.474L14.1747 12.4998ZM17.045 10.7949L18.109 12.5861C18.4084 12.4082 18.6584 12.1582 18.8362 11.8588L17.045 10.7949ZM18.75 7.92453L18.7242 5.84134C17.9984 5.85034 17.3295 6.23649 16.9588 6.86059L18.75 7.92453ZM22.0883 7.88318L22.1142 9.96634C22.4623 9.96203 22.8038 9.87051 23.1075 9.70015L22.0883 7.88318ZM8.33334 39.5832L6.46994 38.6515C6.14705 39.2973 6.18155 40.0642 6.56115 40.6786C6.94075 41.2928 7.6113 41.6665 8.33334 41.6665V39.5832ZM13.5417 39.5832L15.2083 38.3332C14.8149 37.8086 14.1974 37.4998 13.5417 37.4998V39.5832ZM16.6667 43.7498L15 44.9998C15.4332 45.5775 16.1347 45.8896 16.8538 45.8248C17.5729 45.76 18.2071 45.3273 18.5301 44.6815L16.6667 43.7498ZM41.6667 39.5832V41.6665C42.3888 41.6665 43.0592 41.2928 43.439 40.6786C43.8185 40.0642 43.8529 39.2973 43.53 38.6515L41.6667 39.5832ZM36.4583 39.5832V37.4998C35.8025 37.4998 35.1852 37.8086 34.7917 38.3332L36.4583 39.5832ZM33.3333 43.7498L31.47 44.6815C31.7929 45.3273 32.4271 45.76 33.1463 45.8248C33.8654 45.8896 34.5669 45.5775 35 44.9998L33.3333 43.7498ZM40.405 32.4015C39.8904 31.3723 38.6392 30.9553 37.61 31.4698C36.5808 31.9844 36.1638 33.2359 36.6783 34.2648L40.405 32.4015ZM32.0717 36.5682C31.5571 35.539 30.3058 35.1219 29.2767 35.6365C28.2475 36.1511 27.8304 37.4025 28.345 38.4315L32.0717 36.5682ZM21.655 38.4315C22.1696 37.4025 21.7525 36.1511 20.7234 35.6365C19.6943 35.1219 18.4428 35.539 17.9283 36.5682L21.655 38.4315ZM13.3217 34.2648C13.8363 33.2359 13.4191 31.9844 12.39 31.4698C11.3609 30.9553 10.1095 31.3723 9.59494 32.4015L13.3217 34.2648ZM23.9808 8.06682L26.8925 9.70015L28.931 6.0662L26.0192 4.43286L23.9808 8.06682ZM27.8858 9.96634L31.2242 10.0077L31.2758 5.84134L27.9375 5.80001L27.8858 9.96634ZM29.4588 8.98847L31.1638 11.8588L34.746 9.73097L33.0413 6.86059L29.4588 8.98847ZM31.891 12.5861L34.7615 14.291L36.8892 10.7087L34.019 9.00372L31.891 12.5861ZM33.7421 12.5257L33.7835 15.8639L37.9498 15.8123L37.9085 12.474L33.7421 12.5257ZM34.0496 16.8574L35.6829 19.7691L39.3171 17.7306L37.6838 14.8189L34.0496 16.8574ZM35.6829 17.7306L34.0496 20.6423L37.6838 22.6809L39.3171 19.7691L35.6829 17.7306ZM33.7835 21.6357L33.7421 24.974L37.9085 25.0257L37.9498 21.6873L33.7835 21.6357ZM31.1638 25.6409L29.4588 28.5113L33.0413 30.639L34.746 27.7688L31.1638 25.6409ZM31.2242 27.4919L27.8858 27.5334L27.9375 31.6996L31.2758 31.6584L31.2242 27.4919ZM22.1142 27.5334L18.7758 27.4919L18.7242 31.6584L22.0625 31.6996L22.1142 27.5334ZM20.5412 28.5113L18.8362 25.6409L15.2539 27.7688L16.9588 30.639L20.5412 28.5113ZM16.2579 24.974L16.2165 21.6357L12.0502 21.6873L12.0915 25.0257L16.2579 24.974ZM15.9503 20.6423L14.317 17.7306L10.683 19.7691L12.3164 22.6809L15.9503 20.6423ZM14.317 19.7691L15.9503 16.8574L12.3164 14.8189L10.683 17.7306L14.317 19.7691ZM16.2165 15.8639L16.2579 12.5256L12.0915 12.474L12.0502 15.8123L16.2165 15.8639ZM15.2386 14.291L18.109 12.5861L15.9811 9.00372L13.1108 10.7087L15.2386 14.291ZM18.8362 11.8588L20.5412 8.98847L16.9588 6.86059L15.2539 9.73097L18.8362 11.8588ZM18.7758 10.0077L22.1142 9.96634L22.0625 5.80001L18.7242 5.84134L18.7758 10.0077ZM23.1075 9.70015L26.0192 8.06682L23.9808 4.43286L21.069 6.0662L23.1075 9.70015ZM34.7615 23.2086L31.891 24.9136L34.019 28.4959L36.8892 26.7911L34.7615 23.2086ZM18.109 24.9136L15.2386 23.2086L13.1108 26.7911L15.9811 28.4959L18.109 24.9136ZM26.8925 27.7994L23.9808 29.4328L26.0192 33.0669L28.931 31.4336L26.8925 27.7994ZM26.0192 29.4328L23.1075 27.7994L21.069 31.4336L23.9808 33.0669L26.0192 29.4328ZM8.33334 41.6665H13.5417V37.4998H8.33334V41.6665ZM11.875 40.8332L15 44.9998L18.3333 42.4998L15.2083 38.3332L11.875 40.8332ZM41.6667 37.4998H36.4583V41.6665H41.6667V37.4998ZM34.7917 38.3332L31.6667 42.4998L35 44.9998L38.125 40.8332L34.7917 38.3332ZM36.6783 34.2648L39.8033 40.5148L43.53 38.6515L40.405 32.4015L36.6783 34.2648ZM28.345 38.4315L31.47 44.6815L35.1967 42.8182L32.0717 36.5682L28.345 38.4315ZM17.9283 36.5682L14.8033 42.8182L18.5301 44.6815L21.655 38.4315L17.9283 36.5682ZM9.59494 32.4015L6.46994 38.6515L10.1967 40.5148L13.3217 34.2648L9.59494 32.4015ZM27.0833 18.7498C27.0833 19.9004 26.1506 20.8332 25 20.8332V24.9998C28.4519 24.9998 31.25 22.2017 31.25 18.7498H27.0833ZM25 20.8332C23.8494 20.8332 22.9167 19.9004 22.9167 18.7498H18.75C18.75 22.2017 21.5481 24.9998 25 24.9998V20.8332ZM22.9167 18.7498C22.9167 17.5993 23.8494 16.6665 25 16.6665V12.4998C21.5481 12.4998 18.75 15.2981 18.75 18.7498H22.9167ZM25 16.6665C26.1506 16.6665 27.0833 17.5993 27.0833 18.7498H31.25C31.25 15.2981 28.4519 12.4998 25 12.4998V16.6665Z" fill="#EFBF04"/>
</svg>
