<svg width="330" height="208" viewBox="0 0 330 208" fill="none" xmlns="http://www.w3.org/2000/svg">
<path d="M278.59 6.63999L274.44 3.65199L248.71 29.382H255.682L278.59 6.63999ZM259.334 36.022C253.524 36.022 218.996 36.022 218.996 36.022C218.996 36.022 208.372 36.022 197.748 36.022H168.864C170.856 31.208 175.67 29.382 182.144 29.382H205.384L210.696 24.07C198.578 11.952 178.658 11.952 166.54 24.07C154.422 36.188 154.422 56.108 166.54 68.226L180.318 54.116C186.294 60.092 196.918 70.716 203.226 77.024C212.356 86.154 215.676 90.968 215.676 97.608C215.676 110.39 215.676 145.582 215.676 145.582C215.676 150.23 212.688 153.55 209.036 153.55H58.298C53.484 153.55 49.5 157.534 49.5 162.348H319C319 157.534 315.016 153.55 310.202 153.55H229.122C225.47 153.55 222.482 150.23 222.482 145.582C222.482 145.582 222.482 110.39 222.482 97.608C222.482 91.134 225.636 86.32 234.932 77.024C244.228 67.728 262.488 49.468 262.488 49.468C269.626 41.998 267.468 36.022 259.334 36.022ZM251.698 46.978L225.802 72.874C225.47 73.206 224.972 73.372 224.64 73.372C224.308 73.372 223.81 73.206 223.478 72.874C222.814 72.21 222.814 71.214 223.478 70.55L249.374 44.654C250.038 43.99 251.034 43.99 251.698 44.654C252.362 45.318 252.362 46.314 251.698 46.978Z" fill="#EFBF04"/>
<path d="M5.79201 161.048V159.128C8.35201 158.872 10.528 158.104 12.32 156.824C14.112 155.608 15.488 153.496 16.448 150.488C17.408 147.48 17.888 143.256 17.888 137.816V85.208C17.888 82.84 17.696 81.112 17.312 80.024C16.992 78.872 16.32 78.104 15.296 77.72C14.272 77.272 12.736 77.016 10.688 76.952V75.032C12.288 75.096 14.368 75.16 16.928 75.224C19.552 75.288 22.304 75.32 25.184 75.32C28.064 75.32 30.848 75.288 33.536 75.224C36.288 75.16 38.56 75.096 40.352 75.032V76.952C38.368 77.016 36.832 77.272 35.744 77.72C34.72 78.104 34.016 78.872 33.632 80.024C33.312 81.112 33.152 82.84 33.152 85.208V120.344C33.152 122.968 33.152 125.816 33.152 128.888C33.152 131.896 33.024 134.84 32.768 137.72C32.576 140.6 32.16 143.16 31.52 145.4C30.24 149.816 27.456 153.528 23.168 156.536C18.944 159.544 13.152 161.048 5.79201 161.048Z" fill="white"/>
<path d="M73.0595 92.024C77.7315 92.024 81.8275 92.888 85.3475 94.616C88.8675 96.344 91.6195 99.128 93.6035 102.968C95.5875 106.808 96.5795 111.896 96.5795 118.232C96.5795 124.568 95.5875 129.656 93.6035 133.496C91.6195 137.272 88.8675 140.024 85.3475 141.752C81.8275 143.48 77.7315 144.344 73.0595 144.344C68.5155 144.344 64.4515 143.48 60.8675 141.752C57.3475 140.024 54.5635 137.272 52.5155 133.496C50.5315 129.656 49.5395 124.568 49.5395 118.232C49.5395 111.896 50.5315 106.808 52.5155 102.968C54.5635 99.128 57.3475 96.344 60.8675 94.616C64.4515 92.888 68.5155 92.024 73.0595 92.024ZM73.0595 93.944C70.4995 93.944 68.3555 95.864 66.6275 99.704C64.8995 103.48 64.0355 109.656 64.0355 118.232C64.0355 126.808 64.8995 132.984 66.6275 136.76C68.3555 140.536 70.4995 142.424 73.0595 142.424C75.6835 142.424 77.8275 140.536 79.4915 136.76C81.2195 132.984 82.0835 126.808 82.0835 118.232C82.0835 109.656 81.2195 103.48 79.4915 99.704C77.8275 95.864 75.6835 93.944 73.0595 93.944Z" fill="white"/>
<path d="M143.085 92.024C145.773 92.024 147.949 92.376 149.613 93.08C151.341 93.72 152.685 94.616 153.645 95.768C154.669 96.984 155.405 98.552 155.853 100.472C156.365 102.392 156.621 104.984 156.621 108.248V134.072C156.621 136.76 157.069 138.584 157.965 139.544C158.925 140.504 160.525 140.984 162.765 140.984V143C161.549 142.936 159.725 142.872 157.293 142.808C154.861 142.68 152.461 142.616 150.093 142.616C147.661 142.616 145.261 142.68 142.893 142.808C140.589 142.872 138.829 142.936 137.613 143V140.984C139.533 140.984 140.877 140.504 141.645 139.544C142.413 138.584 142.797 136.76 142.797 134.072V104.216C142.797 102.616 142.637 101.24 142.317 100.088C141.997 98.872 141.421 97.944 140.589 97.304C139.757 96.6 138.509 96.248 136.845 96.248C135.117 96.248 133.517 96.728 132.045 97.688C130.637 98.648 129.485 99.992 128.589 101.72C127.757 103.384 127.341 105.272 127.341 107.384V134.072C127.341 136.76 127.725 138.584 128.493 139.544C129.325 140.504 130.669 140.984 132.525 140.984V143C131.373 142.936 129.677 142.872 127.437 142.808C125.261 142.68 122.989 142.616 120.621 142.616C118.189 142.616 115.693 142.68 113.133 142.808C110.573 142.872 108.653 142.936 107.373 143V140.984C109.613 140.984 111.181 140.504 112.077 139.544C113.037 138.584 113.517 136.76 113.517 134.072V103.832C113.517 100.952 113.069 98.84 112.173 97.496C111.341 96.088 109.741 95.384 107.373 95.384V93.368C109.421 93.56 111.405 93.656 113.325 93.656C116.013 93.656 118.509 93.56 120.813 93.368C123.181 93.112 125.357 92.76 127.341 92.312V100.952C128.941 97.688 131.117 95.384 133.869 94.04C136.621 92.696 139.693 92.024 143.085 92.024Z" fill="white"/>
<path d="M195.91 92.024C201.542 92.024 205.958 93.688 209.158 97.016C212.358 100.344 213.958 105.784 213.958 113.336H182.374L182.182 111.512H201.861C201.925 108.376 201.734 105.496 201.286 102.872C200.838 100.184 200.134 98.04 199.174 96.44C198.214 94.84 196.933 94.04 195.333 94.04C193.093 94.04 191.174 95.448 189.574 98.264C188.038 101.08 187.11 105.752 186.79 112.28L187.077 112.856C187.013 113.624 186.949 114.424 186.885 115.256C186.885 116.088 186.885 116.952 186.885 117.848C186.885 122.264 187.494 125.848 188.71 128.6C189.99 131.352 191.59 133.368 193.51 134.648C195.43 135.864 197.382 136.472 199.366 136.472C200.71 136.472 202.085 136.28 203.493 135.896C204.965 135.448 206.438 134.68 207.91 133.592C209.382 132.44 210.758 130.84 212.038 128.792L213.766 129.368C212.998 131.8 211.782 134.168 210.118 136.472C208.454 138.776 206.342 140.664 203.782 142.136C201.222 143.608 198.15 144.344 194.566 144.344C190.214 144.344 186.374 143.416 183.046 141.56C179.718 139.704 177.094 136.888 175.174 133.112C173.318 129.336 172.389 124.536 172.389 118.712C172.389 112.76 173.381 107.8 175.365 103.832C177.413 99.864 180.197 96.92 183.717 95C187.301 93.016 191.366 92.024 195.91 92.024Z" fill="white"/>
<path d="M243.325 92.024C246.013 92.024 248.349 92.376 250.333 93.08C252.381 93.72 253.853 94.36 254.749 95C256.925 96.472 258.269 95.512 258.781 92.12H260.797C260.669 93.912 260.573 96.12 260.509 98.744C260.445 101.304 260.413 104.728 260.413 109.016H258.397C258.077 106.648 257.469 104.312 256.573 102.008C255.677 99.704 254.365 97.816 252.637 96.344C250.973 94.872 248.797 94.136 246.109 94.136C244.253 94.136 242.685 94.68 241.405 95.768C240.125 96.792 239.485 98.296 239.485 100.28C239.485 102.2 240.061 103.896 241.213 105.368C242.365 106.776 243.837 108.152 245.629 109.496C247.485 110.776 249.405 112.152 251.389 113.624C253.501 115.224 255.42 116.824 257.148 118.424C258.876 119.96 260.253 121.656 261.277 123.512C262.301 125.368 262.812 127.576 262.812 130.136C262.812 133.016 261.98 135.544 260.316 137.72C258.652 139.832 256.445 141.464 253.693 142.616C251.005 143.768 247.997 144.344 244.669 144.344C242.749 144.344 241.021 144.152 239.485 143.768C238.013 143.384 236.733 142.904 235.645 142.328C234.813 141.944 234.013 141.592 233.245 141.272C232.541 140.888 231.869 140.568 231.229 140.312C230.589 140.12 230.013 140.344 229.501 140.984C229.053 141.624 228.701 142.52 228.445 143.672H226.428C226.556 141.624 226.653 139.128 226.717 136.184C226.781 133.24 226.812 129.336 226.812 124.472H228.829C229.213 127.928 229.917 131 230.941 133.688C231.965 136.312 233.341 138.392 235.069 139.928C236.861 141.4 239.1 142.136 241.788 142.136C242.876 142.136 243.932 141.912 244.956 141.464C245.98 141.016 246.812 140.28 247.452 139.256C248.156 138.232 248.508 136.92 248.508 135.32C248.508 132.504 247.581 130.168 245.725 128.312C243.933 126.456 241.628 124.44 238.812 122.264C236.764 120.6 234.812 118.968 232.956 117.368C231.164 115.704 229.692 113.912 228.54 111.992C227.388 110.008 226.812 107.768 226.812 105.272C226.812 102.392 227.581 99.96 229.117 97.976C230.653 95.992 232.669 94.52 235.165 93.56C237.725 92.536 240.445 92.024 243.325 92.024Z" fill="white"/>
<path d="M320.404 93.368V95.288C319.188 95.608 318.036 96.376 316.948 97.592C315.86 98.744 314.804 100.728 313.78 103.544L300.244 141.56L296.692 148.28L275.764 100.76C274.676 98.264 273.588 96.76 272.5 96.248C271.476 95.672 270.58 95.384 269.812 95.384V93.368C271.924 93.56 274.1 93.72 276.34 93.848C278.644 93.912 280.852 93.944 282.964 93.944C285.588 93.944 287.988 93.88 290.164 93.752C292.34 93.624 294.388 93.496 296.308 93.368V95.384C295.028 95.384 293.812 95.48 292.66 95.672C291.572 95.8 290.804 96.248 290.356 97.016C289.972 97.72 290.164 98.968 290.932 100.76L303.028 129.944L302.164 130.52L309.268 110.648C310.484 107.192 310.996 104.376 310.804 102.2C310.612 99.96 309.908 98.296 308.692 97.208C307.476 96.056 305.812 95.416 303.7 95.288V93.368C304.724 93.432 305.78 93.496 306.868 93.56C307.956 93.56 309.044 93.592 310.132 93.656C311.22 93.656 312.18 93.656 313.012 93.656C314.292 93.656 315.636 93.624 317.044 93.56C318.452 93.496 319.572 93.432 320.404 93.368ZM300.244 141.56L296.596 151.832C295.956 153.432 295.284 154.776 294.58 155.864C293.94 157.016 293.204 157.944 292.372 158.648C291.476 159.416 290.324 159.992 288.916 160.376C287.508 160.824 285.876 161.048 284.02 161.048C282.484 161.048 280.884 160.792 279.22 160.28C277.62 159.768 276.276 158.936 275.188 157.784C274.1 156.632 273.556 155.16 273.556 153.368C273.556 151.384 274.26 149.784 275.668 148.568C277.076 147.416 278.932 146.84 281.236 146.84C283.348 146.84 285.076 147.352 286.42 148.376C287.764 149.4 288.436 150.904 288.436 152.888C288.436 154.168 288.02 155.384 287.188 156.536C286.42 157.688 285.236 158.552 283.636 159.128C283.956 159.192 284.34 159.224 284.788 159.224C285.236 159.224 285.588 159.224 285.844 159.224C287.764 159.224 289.46 158.616 290.932 157.4C292.404 156.184 293.62 154.264 294.58 151.64L297.94 141.752L300.244 141.56Z" fill="white"/>
<path d="M0.678131 200V173.818H9.12842C10.9864 173.818 12.5375 174.176 13.7818 174.892C15.0347 175.599 15.9764 176.562 16.6071 177.781C17.2463 179 17.5659 180.372 17.5659 181.898C17.5659 183.423 17.2506 184.8 16.6199 186.027C15.9892 187.246 15.0517 188.213 13.8074 188.929C12.5631 189.636 11.0162 189.99 9.16677 189.99H2.51904V187.842H9.10285C10.475 187.842 11.6128 187.587 12.5162 187.075C13.4196 186.555 14.0929 185.848 14.5361 184.953C14.9878 184.058 15.2136 183.04 15.2136 181.898C15.2136 180.756 14.9878 179.737 14.5361 178.842C14.0929 177.947 13.4153 177.244 12.5034 176.733C11.6 176.222 10.4537 175.966 9.0645 175.966H3.06876V200H0.678131Z" fill="white"/>
<path d="M23.7851 200V180.364H25.9968V183.381H26.163C26.555 182.392 27.2368 181.595 28.2084 180.99C29.1885 180.376 30.2965 180.07 31.5323 180.07C31.7198 180.07 31.9286 180.074 32.1587 180.082C32.3888 180.091 32.5806 180.099 32.734 180.108V182.422C32.6317 182.405 32.4527 182.379 32.1971 182.345C31.9414 182.311 31.6644 182.294 31.3661 182.294C30.3434 182.294 29.4314 182.511 28.6303 182.946C27.8377 183.372 27.2113 183.964 26.751 184.723C26.2908 185.482 26.0607 186.347 26.0607 187.318V200H23.7851Z" fill="white"/>
<path d="M37.7227 200V180.364H40.0111V200H37.7227ZM38.8861 176.989C38.4173 176.989 38.0168 176.831 37.6844 176.516C37.352 176.192 37.1858 175.804 37.1858 175.352C37.1858 174.901 37.352 174.517 37.6844 174.202C38.0168 173.878 38.4173 173.716 38.8861 173.716C39.3548 173.716 39.7554 173.878 40.0878 174.202C40.4202 174.517 40.5864 174.901 40.5864 175.352C40.5864 175.804 40.4202 176.192 40.0878 176.516C39.7554 176.831 39.3548 176.989 38.8861 176.989Z" fill="white"/>
<path d="M62.3095 180.364L55.1376 200H52.7086L45.5367 180.364H48.0041L53.8336 196.996H54.0126L59.8421 180.364H62.3095Z" fill="white"/>
<path d="M72.7282 200.447C71.5436 200.447 70.4612 200.217 69.4811 199.757C68.501 199.288 67.7211 198.615 67.1416 197.737C66.562 196.851 66.2723 195.777 66.2723 194.516C66.2723 193.544 66.4555 192.726 66.822 192.061C67.1885 191.396 67.7084 190.851 68.3817 190.425C69.0549 189.999 69.8518 189.662 70.7723 189.415C71.6927 189.168 72.7069 188.976 73.8149 188.839C74.9143 188.703 75.8433 188.584 76.6018 188.482C77.3689 188.379 77.9527 188.217 78.3532 187.996C78.7538 187.774 78.9541 187.416 78.9541 186.922V186.462C78.9541 185.124 78.5535 184.071 77.7524 183.304C76.9598 182.528 75.8177 182.141 74.3263 182.141C72.9115 182.141 71.7567 182.452 70.8618 183.074C69.9754 183.696 69.3532 184.429 68.9953 185.273L66.8348 184.493C67.278 183.419 67.8916 182.562 68.6757 181.923C69.4598 181.276 70.3376 180.811 71.3092 180.53C72.2808 180.24 73.2652 180.095 74.2623 180.095C75.0123 180.095 75.7922 180.193 76.6018 180.389C77.42 180.585 78.1785 180.926 78.8774 181.412C79.5763 181.889 80.143 182.558 80.5777 183.419C81.0123 184.271 81.2297 185.354 81.2297 186.666V200H78.9541V196.893H78.8135C78.5407 197.473 78.1359 198.035 77.599 198.581C77.0621 199.126 76.3888 199.574 75.5791 199.923C74.7694 200.273 73.8191 200.447 72.7282 200.447ZM73.0351 198.364C74.2453 198.364 75.2936 198.095 76.1799 197.558C77.0663 197.021 77.7481 196.31 78.2254 195.423C78.7112 194.528 78.9541 193.544 78.9541 192.47V189.632C78.7836 189.794 78.4981 189.939 78.0976 190.067C77.7055 190.195 77.2496 190.31 76.7297 190.412C76.2183 190.506 75.7069 190.587 75.1956 190.655C74.6842 190.723 74.224 190.783 73.8149 190.834C72.7069 190.97 71.7609 191.183 70.9768 191.473C70.1927 191.763 69.5919 192.163 69.1743 192.675C68.7567 193.178 68.5478 193.825 68.5478 194.618C68.5478 195.811 68.974 196.736 69.8263 197.392C70.6785 198.04 71.7481 198.364 73.0351 198.364Z" fill="white"/>
<path d="M96.0973 180.364V182.345H86.7266V180.364H96.0973ZM89.6541 175.659H91.9425V194.874C91.9425 195.692 92.0831 196.335 92.3644 196.804C92.6456 197.264 93.0121 197.592 93.4638 197.788C93.9155 197.976 94.397 198.07 94.9084 198.07C95.2067 198.07 95.4624 198.053 95.6754 198.018C95.8885 197.976 96.076 197.933 96.2379 197.891L96.7237 199.949C96.5021 200.034 96.2294 200.111 95.9055 200.179C95.5817 200.256 95.1811 200.294 94.7038 200.294C93.8686 200.294 93.0632 200.111 92.2877 199.744C91.5206 199.378 90.8899 198.832 90.3956 198.108C89.9013 197.384 89.6541 196.484 89.6541 195.41V175.659Z" fill="white"/>
<path d="M110.073 200.409C108.241 200.409 106.656 199.983 105.318 199.131C103.98 198.27 102.944 197.081 102.211 195.564C101.487 194.038 101.124 192.283 101.124 190.297C101.124 188.32 101.487 186.564 102.211 185.03C102.944 183.487 103.954 182.281 105.241 181.412C106.536 180.534 108.032 180.095 109.728 180.095C110.793 180.095 111.82 180.291 112.809 180.683C113.798 181.067 114.684 181.659 115.468 182.46C116.261 183.253 116.887 184.254 117.347 185.464C117.808 186.666 118.038 188.089 118.038 189.734V190.859H102.697V188.852H115.711C115.711 187.591 115.455 186.457 114.944 185.452C114.441 184.437 113.738 183.636 112.835 183.048C111.94 182.46 110.904 182.166 109.728 182.166C108.484 182.166 107.389 182.499 106.443 183.163C105.497 183.828 104.755 184.706 104.218 185.797C103.69 186.888 103.421 188.081 103.413 189.376V190.578C103.413 192.138 103.681 193.501 104.218 194.669C104.764 195.828 105.535 196.727 106.532 197.366C107.529 198.006 108.71 198.325 110.073 198.325C111.002 198.325 111.816 198.18 112.515 197.891C113.222 197.601 113.815 197.213 114.292 196.727C114.778 196.233 115.144 195.692 115.391 195.104L117.552 195.807C117.254 196.634 116.764 197.396 116.082 198.095C115.408 198.794 114.565 199.357 113.551 199.783C112.545 200.2 111.386 200.409 110.073 200.409Z" fill="white"/>
<path d="M135.81 200V173.818H144.644C146.349 173.818 147.768 174.116 148.901 174.713C150.043 175.31 150.9 176.124 151.471 177.155C152.042 178.186 152.327 179.358 152.327 180.67C152.327 181.761 152.144 182.695 151.778 183.47C151.411 184.246 150.913 184.872 150.282 185.349C149.651 185.827 148.948 186.172 148.173 186.385V186.589C149.016 186.649 149.834 186.947 150.627 187.484C151.42 188.013 152.072 188.754 152.583 189.709C153.094 190.663 153.35 191.805 153.35 193.135C153.35 194.456 153.056 195.636 152.468 196.676C151.88 197.707 150.977 198.521 149.758 199.118C148.548 199.706 147.005 200 145.13 200H135.81ZM138.201 197.852H145.13C147.15 197.852 148.641 197.405 149.604 196.51C150.576 195.615 151.062 194.49 151.062 193.135C151.062 192.138 150.819 191.234 150.333 190.425C149.856 189.607 149.178 188.959 148.3 188.482C147.431 188.004 146.408 187.766 145.232 187.766H138.201V197.852ZM138.201 185.643H144.861C145.893 185.643 146.796 185.43 147.572 185.004C148.347 184.578 148.952 183.99 149.387 183.24C149.822 182.49 150.039 181.634 150.039 180.67C150.039 179.281 149.587 178.152 148.684 177.283C147.78 176.405 146.434 175.966 144.644 175.966H138.201V185.643Z" fill="white"/>
<path d="M165.21 200.447C164.026 200.447 162.943 200.217 161.963 199.757C160.983 199.288 160.203 198.615 159.624 197.737C159.044 196.851 158.754 195.777 158.754 194.516C158.754 193.544 158.938 192.726 159.304 192.061C159.671 191.396 160.19 190.851 160.864 190.425C161.537 189.999 162.334 189.662 163.254 189.415C164.175 189.168 165.189 188.976 166.297 188.839C167.396 188.703 168.325 188.584 169.084 188.482C169.851 188.379 170.435 188.217 170.835 187.996C171.236 187.774 171.436 187.416 171.436 186.922V186.462C171.436 185.124 171.036 184.071 170.234 183.304C169.442 182.528 168.3 182.141 166.808 182.141C165.394 182.141 164.239 182.452 163.344 183.074C162.457 183.696 161.835 184.429 161.477 185.273L159.317 184.493C159.76 183.419 160.374 182.562 161.158 181.923C161.942 181.276 162.82 180.811 163.791 180.53C164.763 180.24 165.747 180.095 166.744 180.095C167.494 180.095 168.274 180.193 169.084 180.389C169.902 180.585 170.661 180.926 171.359 181.412C172.058 181.889 172.625 182.558 173.06 183.419C173.494 184.271 173.712 185.354 173.712 186.666V200H171.436V196.893H171.296C171.023 197.473 170.618 198.035 170.081 198.581C169.544 199.126 168.871 199.574 168.061 199.923C167.251 200.273 166.301 200.447 165.21 200.447ZM165.517 198.364C166.727 198.364 167.776 198.095 168.662 197.558C169.548 197.021 170.23 196.31 170.707 195.423C171.193 194.528 171.436 193.544 171.436 192.47V189.632C171.266 189.794 170.98 189.939 170.58 190.067C170.188 190.195 169.732 190.31 169.212 190.412C168.7 190.506 168.189 190.587 167.678 190.655C167.166 190.723 166.706 190.783 166.297 190.834C165.189 190.97 164.243 191.183 163.459 191.473C162.675 191.763 162.074 192.163 161.656 192.675C161.239 193.178 161.03 193.825 161.03 194.618C161.03 195.811 161.456 196.736 162.308 197.392C163.161 198.04 164.23 198.364 165.517 198.364Z" fill="white"/>
<path d="M180.845 200V180.364H183.057V183.381H183.223C183.615 182.392 184.297 181.595 185.268 180.99C186.248 180.376 187.356 180.07 188.592 180.07C188.78 180.07 188.988 180.074 189.219 180.082C189.449 180.091 189.64 180.099 189.794 180.108V182.422C189.692 182.405 189.513 182.379 189.257 182.345C189.001 182.311 188.724 182.294 188.426 182.294C187.403 182.294 186.491 182.511 185.69 182.946C184.898 183.372 184.271 183.964 183.811 184.723C183.351 185.482 183.121 186.347 183.121 187.318V200H180.845Z" fill="white"/>
<path d="M203.722 180.364V182.345H194.351V180.364H203.722ZM197.279 175.659H199.567V194.874C199.567 195.692 199.708 196.335 199.989 196.804C200.27 197.264 200.637 197.592 201.088 197.788C201.54 197.976 202.022 198.07 202.533 198.07C202.831 198.07 203.087 198.053 203.3 198.018C203.513 197.976 203.701 197.933 203.862 197.891L204.348 199.949C204.127 200.034 203.854 200.111 203.53 200.179C203.206 200.256 202.806 200.294 202.328 200.294C201.493 200.294 200.688 200.111 199.912 199.744C199.145 199.378 198.514 198.832 198.02 198.108C197.526 197.384 197.279 196.484 197.279 195.41V175.659Z" fill="white"/>
<path d="M217.698 200.409C215.865 200.409 214.28 199.983 212.942 199.131C211.604 198.27 210.569 197.081 209.836 195.564C209.111 194.038 208.749 192.283 208.749 190.297C208.749 188.32 209.111 186.564 209.836 185.03C210.569 183.487 211.578 182.281 212.865 181.412C214.161 180.534 215.657 180.095 217.353 180.095C218.418 180.095 219.445 180.291 220.434 180.683C221.422 181.067 222.309 181.659 223.093 182.46C223.885 183.253 224.512 184.254 224.972 185.464C225.432 186.666 225.662 188.089 225.662 189.734V190.859H210.321V188.852H223.336C223.336 187.591 223.08 186.457 222.569 185.452C222.066 184.437 221.363 183.636 220.459 183.048C219.564 182.46 218.529 182.166 217.353 182.166C216.108 182.166 215.013 182.499 214.067 183.163C213.121 183.828 212.38 184.706 211.843 185.797C211.314 186.888 211.046 188.081 211.037 189.376V190.578C211.037 192.138 211.306 193.501 211.843 194.669C212.388 195.828 213.159 196.727 214.157 197.366C215.154 198.006 216.334 198.325 217.698 198.325C218.627 198.325 219.441 198.18 220.14 197.891C220.847 197.601 221.439 197.213 221.917 196.727C222.402 196.233 222.769 195.692 223.016 195.104L225.176 195.807C224.878 196.634 224.388 197.396 223.706 198.095C223.033 198.794 222.189 199.357 221.175 199.783C220.169 200.2 219.01 200.409 217.698 200.409Z" fill="white"/>
<path d="M234.032 187.727V200H231.757V180.364H233.968V183.445H234.173C234.633 182.439 235.349 181.634 236.321 181.028C237.301 180.415 238.511 180.108 239.951 180.108C241.272 180.108 242.432 180.385 243.429 180.939C244.434 181.484 245.214 182.29 245.768 183.355C246.331 184.42 246.612 185.729 246.612 187.28V200H244.336V187.42C244.336 185.81 243.885 184.535 242.981 183.598C242.086 182.66 240.885 182.192 239.376 182.192C238.345 182.192 237.429 182.413 236.628 182.857C235.826 183.3 235.191 183.939 234.723 184.774C234.263 185.601 234.032 186.585 234.032 187.727Z" fill="white"/>
<path d="M260.754 200.409C259.143 200.409 257.733 199.983 256.523 199.131C255.312 198.278 254.366 197.089 253.684 195.564C253.011 194.038 252.675 192.261 252.675 190.233C252.675 188.213 253.011 186.445 253.684 184.928C254.366 183.402 255.317 182.217 256.535 181.374C257.754 180.521 259.173 180.095 260.792 180.095C261.986 180.095 262.979 180.308 263.771 180.734C264.564 181.152 265.199 181.672 265.676 182.294C266.153 182.916 266.524 183.521 266.788 184.109H266.993V173.818H269.281V200H267.057V196.357H266.788C266.524 196.953 266.149 197.567 265.663 198.197C265.177 198.82 264.534 199.344 263.733 199.77C262.94 200.196 261.947 200.409 260.754 200.409ZM261.023 198.325C262.292 198.325 263.375 197.98 264.27 197.29C265.165 196.591 265.846 195.632 266.315 194.413C266.792 193.186 267.031 191.78 267.031 190.195C267.031 188.626 266.797 187.241 266.328 186.04C265.859 184.83 265.177 183.884 264.283 183.202C263.388 182.511 262.301 182.166 261.023 182.166C259.71 182.166 258.602 182.524 257.699 183.24C256.804 183.947 256.122 184.906 255.653 186.116C255.193 187.327 254.963 188.686 254.963 190.195C254.963 191.72 255.197 193.097 255.666 194.324C256.135 195.551 256.817 196.527 257.711 197.251C258.615 197.967 259.719 198.325 261.023 198.325Z" fill="white"/>
<path d="M276.868 200V180.364H279.157V200H276.868ZM278.032 176.989C277.563 176.989 277.162 176.831 276.83 176.516C276.497 176.192 276.331 175.804 276.331 175.352C276.331 174.901 276.497 174.517 276.83 174.202C277.162 173.878 277.563 173.716 278.032 173.716C278.5 173.716 278.901 173.878 279.233 174.202C279.566 174.517 279.732 174.901 279.732 175.352C279.732 175.804 279.566 176.192 279.233 176.516C278.901 176.831 278.5 176.989 278.032 176.989Z" fill="white"/>
<path d="M288.53 187.727V200H286.255V180.364H288.466V183.445H288.671C289.131 182.439 289.847 181.634 290.819 181.028C291.799 180.415 293.009 180.108 294.449 180.108C295.77 180.108 296.929 180.385 297.927 180.939C298.932 181.484 299.712 182.29 300.266 183.355C300.828 184.42 301.11 185.729 301.11 187.28V200H298.834V187.42C298.834 185.81 298.382 184.535 297.479 183.598C296.584 182.66 295.382 182.192 293.874 182.192C292.843 182.192 291.927 182.413 291.125 182.857C290.324 183.3 289.689 183.939 289.221 184.774C288.76 185.601 288.53 186.585 288.53 187.727Z" fill="white"/>
<path d="M315.674 207.773C314.336 207.773 313.164 207.598 312.158 207.249C311.152 206.908 310.304 206.439 309.614 205.842C308.924 205.246 308.387 204.577 308.003 203.835L309.87 202.608C310.151 203.102 310.526 203.588 310.995 204.065C311.472 204.543 312.09 204.939 312.849 205.254C313.616 205.57 314.557 205.727 315.674 205.727C317.412 205.727 318.814 205.293 319.88 204.423C320.954 203.554 321.491 202.203 321.491 200.371V195.947H321.286C321.022 196.544 320.643 197.141 320.148 197.737C319.654 198.325 319.006 198.815 318.205 199.207C317.412 199.599 316.428 199.795 315.252 199.795C313.684 199.795 312.29 199.408 311.072 198.632C309.861 197.857 308.907 196.749 308.208 195.308C307.518 193.859 307.172 192.134 307.172 190.131C307.172 188.145 307.509 186.398 308.182 184.889C308.864 183.381 309.814 182.205 311.033 181.361C312.252 180.517 313.671 180.095 315.29 180.095C316.492 180.095 317.489 180.308 318.282 180.734C319.074 181.152 319.709 181.672 320.187 182.294C320.672 182.916 321.052 183.521 321.324 184.109H321.554V180.364H323.779V200.511C323.779 202.173 323.425 203.541 322.718 204.615C322.01 205.689 321.047 206.482 319.829 206.993C318.61 207.513 317.225 207.773 315.674 207.773ZM315.52 197.712C316.782 197.712 317.86 197.409 318.755 196.804C319.65 196.19 320.336 195.312 320.813 194.17C321.29 193.028 321.529 191.669 321.529 190.092C321.529 188.558 321.295 187.199 320.826 186.014C320.357 184.821 319.675 183.884 318.78 183.202C317.894 182.511 316.807 182.166 315.52 182.166C314.208 182.166 313.1 182.52 312.197 183.227C311.293 183.935 310.611 184.889 310.151 186.091C309.691 187.284 309.461 188.618 309.461 190.092C309.461 191.592 309.695 192.918 310.164 194.068C310.633 195.21 311.319 196.105 312.222 196.753C313.125 197.392 314.225 197.712 315.52 197.712Z" fill="white"/>
</svg>
