<svg width="109" height="17" viewBox="0 0 109 17" fill="none" xmlns="http://www.w3.org/2000/svg">
<path d="M6.08019 2.89712C7.15684 0.965707 7.69517 0 8.5 0C9.30483 0 9.84316 0.965706 10.9198 2.89712L11.1984 3.3968C11.5043 3.94564 11.6573 4.22007 11.8958 4.40114C12.1343 4.5822 12.4314 4.64942 13.0255 4.78384L13.5664 4.90622C15.6571 5.37927 16.7025 5.6158 16.9512 6.41557C17.1999 7.21535 16.4872 8.04871 15.0619 9.71544L14.6932 10.1466C14.2881 10.6203 14.0856 10.8571 13.9945 11.1501C13.9034 11.443 13.934 11.759 13.9953 12.3909L14.051 12.9662C14.2665 15.19 14.3742 16.3019 13.7231 16.7962C13.072 17.2905 12.0932 16.8398 10.1357 15.9385L9.62924 15.7053C9.07296 15.4492 8.79483 15.3211 8.5 15.3211C8.20517 15.3211 7.92704 15.4492 7.37076 15.7053L6.86432 15.9385C4.90677 16.8398 3.928 17.2905 3.27688 16.7962C2.62575 16.3019 2.7335 15.19 2.94899 12.9662L3.00474 12.3909C3.06597 11.759 3.09659 11.443 3.00548 11.1501C2.91438 10.8571 2.71186 10.6203 2.30683 10.1466L1.93808 9.71544C0.512762 8.04871 -0.199899 7.21535 0.0488078 6.41557C0.297515 5.6158 1.34288 5.37927 3.43361 4.90622L3.9745 4.78384C4.56862 4.64942 4.86568 4.5822 5.1042 4.40114C5.34272 4.22007 5.4957 3.94565 5.80165 3.3968L6.08019 2.89712Z" fill="#EFBF04"/>
<path d="M29.0802 2.89712C30.1568 0.965707 30.6952 0 31.5 0C32.3048 0 32.8432 0.965706 33.9198 2.89712L34.1984 3.3968C34.5043 3.94564 34.6573 4.22007 34.8958 4.40114C35.1343 4.5822 35.4314 4.64942 36.0255 4.78384L36.5664 4.90622C38.6571 5.37927 39.7025 5.6158 39.9512 6.41557C40.1999 7.21535 39.4872 8.04871 38.0619 9.71544L37.6932 10.1466C37.2881 10.6203 37.0856 10.8571 36.9945 11.1501C36.9034 11.443 36.934 11.759 36.9953 12.3909L37.051 12.9662C37.2665 15.19 37.3742 16.3019 36.7231 16.7962C36.072 17.2905 35.0932 16.8398 33.1357 15.9385L32.6292 15.7053C32.073 15.4492 31.7948 15.3211 31.5 15.3211C31.2052 15.3211 30.927 15.4492 30.3708 15.7053L29.8643 15.9385C27.9068 16.8398 26.928 17.2905 26.2769 16.7962C25.6258 16.3019 25.7335 15.19 25.949 12.9662L26.0047 12.3909C26.066 11.759 26.0966 11.443 26.0055 11.1501C25.9144 10.8571 25.7119 10.6203 25.3068 10.1466L24.9381 9.71544C23.5128 8.04871 22.8001 7.21535 23.0488 6.41557C23.2975 5.6158 24.3429 5.37927 26.4336 4.90622L26.9745 4.78384C27.5686 4.64942 27.8657 4.5822 28.1042 4.40114C28.3427 4.22007 28.4957 3.94565 28.8016 3.3968L29.0802 2.89712Z" fill="#EFBF04"/>
<path d="M52.0802 2.89712C53.1568 0.965707 53.6952 0 54.5 0C55.3048 0 55.8432 0.965706 56.9198 2.89712L57.1984 3.3968C57.5043 3.94564 57.6573 4.22007 57.8958 4.40114C58.1343 4.5822 58.4314 4.64942 59.0255 4.78384L59.5664 4.90622C61.6571 5.37927 62.7025 5.6158 62.9512 6.41557C63.1999 7.21535 62.4872 8.04871 61.0619 9.71544L60.6932 10.1466C60.2881 10.6203 60.0856 10.8571 59.9945 11.1501C59.9034 11.443 59.934 11.759 59.9953 12.3909L60.051 12.9662C60.2665 15.19 60.3742 16.3019 59.7231 16.7962C59.072 17.2905 58.0932 16.8398 56.1357 15.9385L55.6292 15.7053C55.073 15.4492 54.7948 15.3211 54.5 15.3211C54.2052 15.3211 53.927 15.4492 53.3708 15.7053L52.8643 15.9385C50.9068 16.8398 49.928 17.2905 49.2769 16.7962C48.6258 16.3019 48.7335 15.19 48.949 12.9662L49.0047 12.3909C49.066 11.759 49.0966 11.443 49.0055 11.1501C48.9144 10.8571 48.7119 10.6203 48.3068 10.1466L47.9381 9.71544C46.5128 8.04871 45.8001 7.21535 46.0488 6.41557C46.2975 5.6158 47.3429 5.37927 49.4336 4.90622L49.9745 4.78384C50.5686 4.64942 50.8657 4.5822 51.1042 4.40114C51.3427 4.22007 51.4957 3.94565 51.8016 3.3968L52.0802 2.89712Z" fill="#EFBF04"/>
<path d="M75.0802 2.89712C76.1568 0.965707 76.6952 0 77.5 0C78.3048 0 78.8432 0.965706 79.9198 2.89712L80.1984 3.3968C80.5043 3.94564 80.6573 4.22007 80.8958 4.40114C81.1343 4.5822 81.4314 4.64942 82.0255 4.78384L82.5664 4.90622C84.6571 5.37927 85.7025 5.6158 85.9512 6.41557C86.1999 7.21535 85.4872 8.04871 84.0619 9.71544L83.6932 10.1466C83.2881 10.6203 83.0856 10.8571 82.9945 11.1501C82.9034 11.443 82.934 11.759 82.9953 12.3909L83.051 12.9662C83.2665 15.19 83.3742 16.3019 82.7231 16.7962C82.072 17.2905 81.0932 16.8398 79.1357 15.9385L78.6292 15.7053C78.073 15.4492 77.7948 15.3211 77.5 15.3211C77.2052 15.3211 76.927 15.4492 76.3708 15.7053L75.8643 15.9385C73.9068 16.8398 72.928 17.2905 72.2769 16.7962C71.6258 16.3019 71.7335 15.19 71.949 12.9662L72.0047 12.3909C72.066 11.759 72.0966 11.443 72.0055 11.1501C71.9144 10.8571 71.7119 10.6203 71.3068 10.1466L70.9381 9.71544C69.5128 8.04871 68.8001 7.21535 69.0488 6.41557C69.2975 5.6158 70.3429 5.37927 72.4336 4.90622L72.9745 4.78384C73.5686 4.64942 73.8657 4.5822 74.1042 4.40114C74.3427 4.22007 74.4957 3.94565 74.8016 3.3968L75.0802 2.89712Z" fill="#EFBF04"/>
<path d="M98.0802 2.89712C99.1568 0.965707 99.6952 0 100.5 0C101.305 0 101.843 0.965706 102.92 2.89712L103.198 3.3968C103.504 3.94564 103.657 4.22007 103.896 4.40114C104.134 4.5822 104.431 4.64942 105.025 4.78384L105.566 4.90622C107.657 5.37927 108.702 5.6158 108.951 6.41557C109.2 7.21535 108.487 8.04871 107.062 9.71544L106.693 10.1466C106.288 10.6203 106.086 10.8571 105.995 11.1501C105.903 11.443 105.934 11.759 105.995 12.3909L106.051 12.9662C106.267 15.19 106.374 16.3019 105.723 16.7962C105.072 17.2905 104.093 16.8398 102.136 15.9385L101.629 15.7053C101.073 15.4492 100.795 15.3211 100.5 15.3211C100.205 15.3211 99.927 15.4492 99.3708 15.7053L98.8643 15.9385C96.9068 16.8398 95.928 17.2905 95.2769 16.7962C94.6258 16.3019 94.7335 15.19 94.949 12.9662L95.0047 12.3909C95.066 11.759 95.0966 11.443 95.0055 11.1501C94.9144 10.8571 94.7119 10.6203 94.3068 10.1466L93.9381 9.71544C92.5128 8.04871 91.8001 7.21535 92.0488 6.41557C92.2975 5.6158 93.3429 5.37927 95.4336 4.90622L95.9745 4.78384C96.5686 4.64942 96.8657 4.5822 97.1042 4.40114C97.3427 4.22007 97.4957 3.94565 97.8016 3.3968L98.0802 2.89712Z" fill="#EFBF04"/>
</svg>
